PathFileType  4	(X/Y/Z) C:\Users\antoi\Documents\MyRepositories\mobilecap\ResultsAnalysis
DataRate	CameraRate	NumFrames	NumMarkers	Units	OrigDataRate	OrigDataStartFrame	OrigNumFrames
100.0	100.0	5	51	mm	100.0	901	1441
Frame#	Time	r_knee			r_shank_antsup			r_ankle			r_calc			r_5meta			r_toe			L_knee			L_shank_antsup			L_ankle			L_calc			L_5meta			L_toe			r_sh2			r_sh3			r_sh4			L_sh2			L_sh3			r_thigh1			r_thigh2			r_thigh3			r_thigh4			r_thigh5			L_thigh1			L_thigh2			L_thigh3			L_thigh4			r.ASIS			r.PSIS			L.ASIS			L.PSIS			C7			R_Shoulder			L_Shoulder			R_Sternum			L_Sternum			R_humerus			R_elbow_med			R_elbow_lat			R_forearm			R_wrist_radius			R_wrist_ulna			L_humerus			L_elbow_med			L_elbow_lat			L_forearm			L_wrist_radius			L_wrist_ulna			R_HJC			L_HJC			R_HJC_reg			L_HJC_reg			
		X1	Y1	Z1	X2	Y2	Z2	X3	Y3	Z3	X4	Y4	Z4	X5	Y5	Z5	X6	Y6	Z6	X7	Y7	Z7	X8	Y8	Z8	X9	Y9	Z9	X10	Y10	Z10	X11	Y11	Z11	X12	Y12	Z12	X13	Y13	Z13	X14	Y14	Z14	X15	Y15	Z15	X16	Y16	Z16	X17	Y17	Z17	X18	Y18	Z18	X19	Y19	Z19	X20	Y20	Z20	X21	Y21	Z21	X22	Y22	Z22	X23	Y23	Z23	X24	Y24	Z24	X25	Y25	Z25	X26	Y26	Z26	X27	Y27	Z27	X28	Y28	Z28	X29	Y29	Z29	X30	Y30	Z30	X31	Y31	Z31	X32	Y32	Z32	X33	Y33	Z33	X34	Y34	Z34	X35	Y35	Z35	X36	Y36	Z36	X37	Y37	Z37	X38	Y38	Z38	X39	Y39	Z39	X40	Y40	Z40	X41	Y41	Z41	X42	Y42	Z42	X43	Y43	Z43	X44	Y44	Z44	X45	Y45	Z45	X46	Y46	Z46	X47	Y47	Z47	X48	Y48	Z48	X49	Y49	Z49	X50	Y50	Z50	X51	Y51	Z51	

901	9.00000000	-299.80920	526.95477	-398.07772	-224.45918	449.46015	-402.24106	-292.40691	122.33245	-419.32534	-370.02306	72.85976	-470.24538	-180.32035	49.74226	-369.85382	-120.06233	83.61963	-427.06358	-294.56626	532.08106	-832.60785	-262.05714	459.65507	-859.08776	-297.96239	126.59798	-833.92321	-377.32953	73.59647	-782.89966	-184.72935	51.52136	-867.47781	-127.50895	83.14693	-805.51936	-238.02205	338.78760	-379.18192	-289.24391	463.73954	-364.97885	-317.36175	352.44958	-359.21689	-352.16613	460.61710	-851.19664	-341.50595	338.91292	-855.44237	-610.15925	585.45102	-432.02062	-503.95473	599.03201	-425.96969	-477.07955	551.74695	-383.20316	-596.60207	474.12250	-417.00200	-484.08010	496.07625	-396.99621	-572.44306	602.61464	-808.62013	-433.14404	617.07558	-806.23367	-560.89055	502.64944	-852.79603	-424.59495	514.08112	-855.34995	-673.40165	637.60345	-504.56814	-842.26257	572.94444	-572.01396	-671.68180	631.72593	-743.51379	-845.85721	570.78579	-679.17699	-812.14606	1136.57666	-634.90605	-738.82754	1079.04749	-464.90444	-758.93446	1073.31817	-806.36793	-681.76588	1056.19522	-605.72796	-683.22266	1051.75784	-663.68043	-713.68224	928.32856	-389.50020	-721.59749	748.38038	-467.75803	-734.71714	745.83430	-334.53503	-591.89068	822.75633	-366.56226	-536.88985	890.36997	-401.59359	-516.38728	851.39670	-385.77790	-767.98663	945.81940	-885.70904	-725.51529	715.28927	-830.70866	-736.56240	729.95944	-919.26184	-669.89562	768.44211	-920.88887	-534.75815	859.96293	-875.27907	-513.10650	825.65514	-884.87238	-697.49638	498.20912	-517.84199	-702.31520	497.84908	-724.74634	-690.51560	540.12064	-535.28970	-695.80320	536.94531	-692.92500	
902	9.01000000	-299.72155	527.06136	-398.06416	-224.38508	449.48969	-402.28265	-292.41776	122.24413	-419.40347	-370.02476	72.90549	-470.28786	-180.30701	49.72244	-369.82702	-120.04519	83.62730	-427.08405	-294.44698	532.06811	-832.55787	-261.99613	459.64666	-859.06502	-298.03013	126.62755	-833.98172	-377.16745	73.62077	-783.14235	-184.76148	51.60228	-867.43859	-127.54314	83.26046	-805.49903	-237.95458	338.80453	-379.20466	-288.97721	463.27352	-365.05523	-317.30802	352.44445	-359.22387	-352.09603	460.65184	-851.20557	-341.49859	338.88735	-855.35498	-610.12926	585.46931	-431.97907	-503.78651	598.94018	-426.02217	-477.05249	551.74380	-383.31956	-596.65938	474.20059	-416.87332	-484.02082	496.12642	-397.06555	-572.31023	602.52020	-808.70687	-433.07493	616.98877	-806.25961	-560.73489	502.51875	-852.78837	-424.39353	514.14818	-855.72031	-672.85899	637.64015	-504.40271	-842.06268	573.16609	-572.08569	-671.32433	631.67797	-743.46479	-845.62130	570.99492	-679.21268	-810.83040	1136.63315	-634.94018	-737.54464	1079.02714	-464.97435	-757.50323	1073.43040	-806.53224	-680.64905	1056.10391	-605.84148	-682.02890	1051.61199	-663.87344	-712.39895	928.50072	-389.45843	-720.71203	748.61356	-467.72539	-733.43535	746.17062	-333.97000	-590.69382	823.06474	-366.54784	-535.81859	890.70053	-401.46147	-515.27774	851.67672	-385.71659	-766.59726	945.85594	-885.68000	-724.58798	715.17333	-829.94291	-735.03212	730.20294	-919.75052	-668.38483	768.71819	-921.10500	-533.33739	860.43710	-875.61514	-511.73555	826.16209	-884.98613	-697.34231	498.22461	-517.80125	-702.13628	497.85913	-724.70616	-690.28099	540.11864	-535.13151	-695.52009	536.92223	-692.84541	
903	9.02000000	-299.63897	527.02642	-398.08104	-224.32464	449.47330	-402.31369	-292.40874	122.18455	-419.46224	-370.06355	72.92646	-470.29736	-180.31140	49.72275	-369.83098	-120.03532	83.61813	-427.06357	-294.33796	532.09378	-832.61239	-261.98984	459.60760	-859.03351	-298.11198	126.68025	-834.09175	-377.00208	73.63637	-783.50444	-184.78436	51.67725	-867.42955	-127.60369	83.34151	-805.52092	-237.84898	338.80600	-379.20979	-288.82624	463.31839	-365.09180	-317.23781	352.51555	-359.17207	-352.06865	460.70188	-851.19883	-341.50273	338.94967	-855.36750	-610.11085	585.50584	-431.96644	-503.61397	598.85292	-426.11148	-476.94210	551.80746	-383.37515	-596.74898	474.36774	-416.73431	-483.96952	496.20861	-397.05779	-572.16964	602.48702	-808.80496	-432.96697	616.94100	-806.31452	-560.58257	502.44868	-852.82660	-424.22074	514.16429	-855.94837	-672.31551	637.61610	-504.27498	-841.73070	573.48792	-572.10390	-670.93012	631.56473	-743.32129	-845.24810	571.31996	-679.20241	-809.20521	1136.74406	-634.96223	-735.88801	1079.16924	-465.05320	-755.79798	1073.48239	-806.62169	-679.18907	1056.01164	-605.97460	-680.61041	1051.55145	-664.03531	-710.95676	928.63859	-389.46600	-719.57820	748.74242	-467.56350	-731.98848	746.42917	-333.52910	-589.30381	823.25076	-366.58169	-534.44262	890.90089	-401.34253	-513.91820	851.90166	-385.70031	-764.91437	946.01386	-885.63808	-723.42227	715.02119	-829.24900	-733.25521	730.31231	-920.04898	-666.64332	768.89497	-921.34885	-531.76661	860.77794	-875.86469	-510.17938	826.47264	-884.92474	-697.18485	498.22748	-517.71458	-701.94687	497.85067	-724.62020	-690.06098	540.10196	-535.00391	-695.24054	536.90957	-692.71034	
904	9.03000000	-299.57496	526.92243	-398.09767	-224.26644	449.45613	-402.32357	-292.38951	122.18101	-419.50309	-370.09722	72.89982	-470.25141	-180.34370	49.74681	-369.86861	-120.02920	83.59239	-427.02622	-294.23104	532.15589	-832.77092	-261.96224	459.52837	-858.99732	-298.18440	126.70068	-834.14673	-377.05303	73.61561	-783.59486	-184.79547	51.73098	-867.46212	-127.64921	83.42844	-805.52039	-237.75972	338.76595	-379.19457	-288.63327	463.56047	-365.04574	-317.16017	352.67789	-359.06921	-352.02869	460.74708	-851.17797	-341.55533	338.99914	-855.41289	-610.03247	585.59578	-431.99396	-503.48417	598.89455	-426.25586	-476.77124	551.92309	-383.33130	-596.68539	474.49997	-416.66209	-483.88224	496.28543	-396.95051	-572.03988	602.47830	-808.86349	-432.83480	616.93936	-806.40236	-560.45765	502.42398	-852.86449	-424.10351	514.10305	-855.94295	-671.79571	637.61025	-504.17154	-841.31972	573.84696	-572.03717	-670.48080	631.49866	-743.32623	-844.78739	571.67707	-679.12895	-807.22704	1136.88584	-635.03763	-733.95484	1079.33130	-465.08985	-753.79789	1073.51455	-806.67515	-677.35106	1055.88898	-605.97957	-678.82925	1051.49054	-663.97152	-709.33360	928.72046	-389.50240	-718.19981	748.76361	-467.27287	-730.37903	746.56605	-333.37082	-587.74970	823.36967	-366.48956	-532.79354	890.98571	-401.27342	-512.31618	852.12198	-385.56831	-762.93664	946.21122	-885.82939	-722.02634	714.83104	-828.63274	-731.40178	730.34858	-920.07835	-664.77226	769.04668	-921.65999	-530.03495	860.95083	-876.11387	-508.36061	826.64778	-885.11428	-696.93763	498.28184	-517.63963	-701.71964	497.87443	-724.54474	-689.79628	540.09193	-534.91981	-694.90526	536.89491	-692.70076	
905	9.04000000	-299.50857	526.85574	-398.07678	-224.16970	449.44680	-402.26750	-292.35201	122.20909	-419.50317	-370.08039	72.85672	-470.18546	-180.36411	49.73071	-369.87911	-120.01502	83.56696	-427.02778	-294.11452	532.21549	-832.97985	-261.85347	459.46766	-859.03477	-298.22379	126.68612	-834.13721	-377.10663	73.60810	-783.56153	-184.81000	51.74988	-867.49664	-127.64404	83.53681	-805.44763	-237.71207	338.72571	-379.16001	-288.39291	463.51616	-364.97590	-317.05177	352.84081	-358.93566	-351.91236	460.83100	-851.29764	-341.60459	339.03447	-855.49186	-609.88989	585.73485	-432.00622	-503.38917	599.07327	-426.39378	-476.59317	552.01346	-383.20043	-596.49260	474.66556	-416.44726	-483.74206	496.34885	-396.76366	-571.90732	602.50333	-808.94410	-432.67374	616.98538	-806.54832	-560.34875	502.42649	-852.90237	-423.98652	514.05378	-855.91931	-671.31987	637.58646	-504.14233	-840.90220	574.24329	-571.98995	-669.90327	631.48370	-743.47079	-844.37025	571.99913	-679.11040	-804.81272	1137.11399	-635.21877	-731.72180	1079.37855	-465.16985	-751.43293	1073.60674	-806.71172	-675.15033	1055.78355	-605.92837	-676.61366	1051.39090	-663.84371	-707.39000	928.81764	-389.48400	-716.58067	748.67380	-466.85407	-728.61254	746.73940	-333.34528	-585.96001	823.45499	-366.25252	-530.88655	890.97528	-401.33063	-510.49520	852.14909	-385.41107	-760.73925	946.38730	-886.11955	-720.40837	714.60110	-828.09993	-729.48427	730.45563	-920.17856	-662.78905	769.16377	-921.92829	-528.03431	860.96134	-876.31700	-506.25521	826.71111	-885.56705	-696.69374	498.34524	-517.62920	-701.47312	497.90512	-724.53432	-689.49166	540.14400	-534.84809	-694.60348	536.83613	-692.74156	
